<?xml version="1.0" encoding="utf-8"?>
<!-- Generator: Adobe Illustrator 21.0.0, SVG Export Plug-In . SVG Version: 6.00 Build 0)  -->
<svg version="1.1" id="Laag_1" xmlns="http://www.w3.org/2000/svg" xmlns:xlink="http://www.w3.org/1999/xlink" x="0px" y="0px"
	 viewBox="0 0 850.4 255.1" style="enable-background:new 0 0 850.4 255.1;" xml:space="preserve">
<style type="text/css">
	.st0{fill:#7CB06A;}
	.st1{font-family:'OstrichSans-Black';}
	.st2{font-size:82px;}
	.st3{letter-spacing:4;}
</style>
<g>
	<g>
		<path class="st0" d="M217.9,93.8l-2-1.7l-1.2,2.4c-4,7.9-3.9,21.7,5.8,28.6c-0.7,1.5-1.5,3-2.5,4.6c-3.7,5.6-8.8,10.3-14.6,14.4
			c0.1-8.9-0.7-18-1.5-26.6c-1.1-11.9-2.1-23.1-0.4-31.3c0.1-0.4,0.2-0.9,0.3-1.3c6.2,0.9,12.5,0.1,18.3-2.4
			c8.8-3.7,16-11.2,21-21.6l1.3-2.7l-3-0.2c-26.6-2.1-36.7,13.5-40.3,22.1c-0.5-0.1-0.9-0.3-1.4-0.4c-8-2.6-17.2-9.1-26.9-16
			c-7-5-14.5-10.3-22.3-14.6c6.5-3,13.1-5,19.8-5.4c1.9-0.1,3.6-0.1,5.2,0.1c1.2,11.8,13,18.8,21.9,19.3l2.6,0.2l-0.5-2.6
			c0-0.2-1.1-5.8-5.2-11.1c-3.8-5-11.2-10.8-24.3-10c-8.3,0.5-16.3,3.3-24.1,7.1c-7.8-3.9-15.8-6.7-24.1-7.1
			C94.5,36,90.3,58.4,90.3,58.6l-0.5,2.6l2.6-0.2c8.8-0.5,20.7-7.5,21.9-19.3c1.6-0.2,3.3-0.2,5.2-0.1c6.7,0.4,13.3,2.4,19.8,5.4
			c-7.8,4.4-15.3,9.6-22.3,14.6c-9.7,6.9-18.9,13.4-26.9,16c-0.4,0.1-0.8,0.3-1.3,0.4c-2.3-5.8-6.2-10.9-11.2-14.7
			C70,57.6,59.9,55.1,48.5,56l-3,0.2l1.3,2.7C58.2,83,76.8,84,86,82.8c0.1,0.5,0.2,0.9,0.3,1.4c1.8,8.2,0.7,19.4-0.4,31.3
			c-0.8,8.6-1.6,17.7-1.5,26.6c-5.8-4.1-10.9-8.8-14.6-14.4c-1-1.6-1.9-3.1-2.5-4.6c9.7-6.9,9.7-20.7,5.8-28.6L72,92.1l-2,1.7
			c-0.2,0.1-17.4,15-3.5,36.1c4.6,6.9,11,12.5,18.2,17.3c0.5,8.7,2.2,17.1,5.9,24.5c6.8,13.5,17.2,16.3,24.5,16.3
			c4.9,0,8.4-1.2,8.5-1.3l2.5-0.9l-1.5-2.2c-4.9-7.4-16.8-14.2-27.7-9.3c-0.9-1.3-1.8-2.8-2.7-4.5c-3-6-4.5-12.7-5.2-19.9
			c7.7,4.6,16,8.4,23.8,12c10.8,5,21.1,9.7,27.3,15.3c0.3,0.3,0.6,0.6,1,0.9c-3.9,4.9-6.4,10.8-7.1,17.1c-1.1,9.5,1.7,19.5,8.2,28.9
			l1.7,2.5l1.7-2.5c15.1-22,6.7-38.5,1-45.9c0.3-0.3,0.7-0.7,1-1c6.2-5.6,16.5-10.4,27.3-15.3c7.8-3.6,16.1-7.4,23.8-12
			c-0.7,7.1-2.2,13.9-5.2,19.9c-0.8,1.7-1.7,3.2-2.7,4.5c-10.8-4.9-22.8,1.9-27.7,9.3l-1.5,2.2l2.5,0.9c0.2,0.1,3.7,1.3,8.5,1.3
			c1.2,0,2.4-0.1,3.7-0.2c6.2-0.8,14.9-4.3,20.8-16.1c3.7-7.4,5.4-15.8,5.9-24.5c7.3-4.8,13.7-10.4,18.2-17.3
			C235.3,108.8,218,93.9,217.9,93.8z M235.8,59.9c-8.7,15.9-22,20.2-32.7,18.9C207.4,68.9,217.7,59.6,235.8,59.9z M192.6,56.4
			c-3.1-0.8-6.3-2.3-8.8-4.3c-2.4-1.9-5.2-5.1-6-9.6C187.2,45.1,191.1,52.3,192.6,56.4z M95.2,56.4c1.5-4.1,5.4-11.3,14.8-13.9
			C108.6,50.5,101,55,95.2,56.4z M52,59.9c18.2-0.4,28.5,8.9,32.7,18.9C73.9,80.2,60.7,75.9,52,59.9z M65.9,119
			c-2.5-9.4,1.8-16.4,4.6-19.8C72.2,104.9,72.1,113.8,65.9,119z M119.2,183.5c-4.3,0.8-12.5,1-19.5-5.9
			C107.4,174.8,115.1,179.2,119.2,183.5z M168.6,183.5c2.2-2.3,5.2-4.3,8.2-5.5c2.9-1.1,7-2,11.3-0.4
			C181.1,184.5,172.9,184.3,168.6,183.5z M143.9,219.2c-9.4-15.5-6.5-29.1,0-37.8C150.4,190.1,153.3,203.7,143.9,219.2z
			 M173.2,158.2c-11.1,5.1-21.7,10-28.4,16c-0.3,0.3-0.6,0.6-1,0.9c-0.4-0.4-0.7-0.7-0.9-0.9c-6.7-6.1-17.2-10.9-28.4-16
			c-8.6-3.9-17.7-8.2-25.9-13.3c-0.4-9.6,0.5-19.7,1.4-29.1c1.1-12.2,2.2-23.8,0.3-32.6c-0.1-0.4-0.2-0.9-0.3-1.3
			c0.6-0.1,1-0.3,1.3-0.4c8.6-2.8,18.1-9.5,28.1-16.5c7.7-5.4,15.9-11.3,24.5-15.8c8.5,4.5,16.8,10.3,24.5,15.8
			c10,7.1,19.5,13.8,28.1,16.5c0.4,0.1,0.8,0.3,1.3,0.4c-0.2,0.6-0.3,1-0.3,1.3c-1.9,8.8-0.8,20.4,0.3,32.6
			c0.9,9.4,1.8,19.4,1.4,29.1C190.9,150,181.8,154.3,173.2,158.2z M221.9,119c-6.2-5.2-6.3-14-4.6-19.8
			C220.1,102.5,224.4,109.5,221.9,119z"/>
		<path class="st0" d="M127.4,192.5l-1.8,0.3c-5.3,0.8-9.9,3.4-12.8,7.2c-3.4,4.5-4.7,10.6-3.6,17.8l0.3,2.4l2.3-0.7
			c15.7-4.5,18.6-16,16.1-25.2L127.4,192.5z M113,214.7c-0.8-12.4,6.9-16.3,11.3-17.4C125.1,202.2,124.5,210.5,113,214.7z"/>
		<path class="st0" d="M162.2,192.7l-1.8-0.3l-0.5,1.8c-2.5,9.2,0.4,20.7,16.1,25.2l2.3,0.7l0.3-2.4c1-7.2-0.2-13.3-3.6-17.8
			C172.1,196.1,167.5,193.5,162.2,192.7z M174.8,214.7c-11.5-4.2-12.1-12.5-11.3-17.4C167.9,198.4,175.6,202.3,174.8,214.7z"/>
		<path class="st0" d="M252.1,87.6c-5.2-5-10.5-7.5-16-7.5c-6.7,0-11.6,3.9-13.9,6.2l-1.3,1.3l1.2,1.4c3.9,4.9,9.2,7.6,14.9,7.6
			c0,0,0,0,0,0c4.9,0,10-2,14.9-5.9l1.9-1.5L252.1,87.6z M237,92.5c-3.8,0-7.5-1.6-10.4-4.6c2.1-1.7,5.4-3.6,9.5-3.6
			c3.7,0,7.5,1.6,11.3,4.7C243.9,91.3,240.4,92.5,237,92.5z"/>
		<path class="st0" d="M204.5,59l1.8-0.5C215.5,56.1,224,47.8,220,32l-0.6-2.3l-2.2,0.9c-6.7,2.7-11.4,6.9-13.6,12
			c-1.9,4.5-1.8,9.7,0.1,14.7L204.5,59z M216.5,35.4c2.1,12.1-4.8,16.7-9.5,18.5C205.9,49.5,205.3,40.9,216.5,35.4z"/>
		<path class="st0" d="M81.6,58.6l1.8,0.5l0.7-1.7c2-5,2-10.2,0.1-14.7c-2.2-5.2-6.9-9.4-13.6-12l-2.2-0.9L67.8,32
			C63.8,47.8,72.3,56.1,81.6,58.6z M71.3,35.4c11.2,5.5,10.6,14.1,9.5,18.5C76.1,52.2,69.2,47.5,71.3,35.4z"/>
		<path class="st0" d="M65.7,89l1.2-1.4l-1.3-1.3c-2.3-2.3-7.1-6.2-13.9-6.2c-5.5,0-10.9,2.5-16,7.5L34,89.3l1.9,1.5
			c5,3.9,10,5.9,14.9,5.9C56.5,96.7,61.8,94,65.7,89z M50.8,92.5c-3.4,0-6.8-1.2-10.4-3.5c3.7-3.1,7.5-4.7,11.3-4.7
			c4.1,0,7.4,1.9,9.5,3.6C58.2,90.9,54.6,92.5,50.8,92.5z"/>
	</g>
</g>
<g>
	<path class="st0" d="M130.8,135.9c6-2.7,6.8-7.1,6.8-13.1V89.1h-6.5c-9.6,0-15.8,7.7-15.8,15.2c0,8.3,7,15.4,15.5,15.4v3
		c-10.7,0-18.6-8.3-18.6-18.1c0-10.2,8.2-18.6,19.3-18.6h20.1c7.6,0,12.8,5.4,12.8,12.7c0,5.1-2.8,9.5-7,11.3
		c6.8,1.4,11.9,6.3,11.9,14.1c0,9-6.9,14.8-16.2,14.8h-22.3V135.9z M152.1,135.9c7.9,0,13.9-4.2,13.9-11.8c0-7.4-5.6-11.9-13.2-11.9
		h-12v11.7c0,7-2.5,9.9-5.4,11.9H152.1z M140.8,89.1v20.2h10.4c5.8,0,10-4.7,10-10.4c0-5.8-4.2-9.8-10-9.8H140.8z"/>
</g>
<text transform="matrix(1 0 0 1 291.3726 153.877)" class="st0 st1 st2 st3">Bloembox.BE</text>
</svg>
